<?xml version="1.0" standalone="no"?>
<!DOCTYPE svg PUBLIC "-//W3C//DTD SVG 20010904//EN"
 "http://www.w3.org/TR/2001/REC-SVG-20010904/DTD/svg10.dtd">
<svg version="1.0" xmlns="http://www.w3.org/2000/svg"
 width="1440.000000pt" height="352.000000pt" viewBox="0 0 1440.000000 352.000000"
 preserveAspectRatio="xMidYMid meet">

<g transform="translate(0.000000,352.000000) scale(0.100000,-0.100000)"
fill="#000000" stroke="none">
<path d="M0 1760 l0 -1760 7200 0 7200 0 0 1760 0 1760 -5316 0 -5316 0 4 -25
c3 -14 1 -25 -3 -25 -5 0 -8 -3 -7 -7 6 -16 -42 -83 -59 -84 -10 -1 -38 -2
-63 -3 -25 -1 -54 -7 -64 -13 -16 -9 -24 -6 -44 18 -15 18 -22 37 -19 49 3 11
2 20 -2 20 -3 0 -6 15 -6 33 l0 32 -1752 3 -1753 2 0 -1760z m7916 1458 c57
-30 158 -139 220 -238 48 -76 150 -216 164 -225 5 -3 38 -11 72 -16 68 -11
143 -45 192 -86 37 -31 65 -71 114 -163 38 -71 91 -131 228 -261 45 -41 99
-100 122 -131 22 -30 47 -61 54 -69 8 -8 39 -46 70 -85 55 -69 142 -151 183
-171 11 -6 36 -13 55 -17 45 -8 156 -75 198 -119 50 -52 112 -182 103 -215 -5
-15 -6 -33 -3 -41 3 -8 0 -11 -7 -7 -6 4 -11 2 -11 -4 0 -15 -48 -4 -74 17
-11 10 -17 14 -13 8 4 -5 -7 -17 -25 -26 -25 -13 -35 -27 -43 -60 -9 -36 -15
-44 -34 -45 -27 -2 -40 -19 -42 -54 -2 -22 -2 -22 -6 -4 l-4 21 -59 -20 c-32
-11 -58 -25 -57 -30 1 -5 -27 -11 -62 -12 -56 -4 -64 -2 -68 16 -4 13 -14 19
-33 19 -19 0 -33 8 -44 25 -9 14 -23 25 -31 25 -8 0 -29 12 -45 27 -25 22 -97
55 -135 61 -29 6 -41 14 -42 30 -1 15 14 24 65 41 134 45 152 53 152 67 0 8
-10 15 -22 15 -103 6 -149 24 -196 77 -73 81 -92 107 -92 122 0 14 -46 49 -67
52 -12 1 -53 17 -93 36 -34 17 -44 23 -98 69 -15 13 -29 23 -32 23 -3 0 -27
19 -53 43 -63 57 -62 79 6 147 l52 54 -32 9 c-18 6 -33 13 -33 18 0 4 -16 6
-35 5 -23 -2 -43 4 -60 18 -14 11 -38 21 -53 22 -48 2 -82 22 -97 58 -20 46
-55 72 -110 79 -25 4 -60 14 -78 24 -17 9 -34 18 -37 19 -3 1 -15 5 -27 9 -13
4 -23 12 -23 17 0 5 -9 6 -20 3 -11 -4 -20 -2 -20 4 0 6 -5 11 -11 11 -6 0
-29 14 -50 31 -29 23 -39 38 -39 59 0 26 -5 31 -40 40 -22 6 -45 8 -50 5 -5
-3 -19 -1 -31 6 -13 6 -80 12 -169 12 -82 1 -152 5 -156 9 -4 4 -20 -4 -36
-17 -16 -14 -34 -25 -39 -25 -6 0 -21 -11 -35 -25 -16 -16 -36 -25 -57 -25
-65 1 -183 21 -305 51 -69 17 -137 31 -151 31 -14 0 -30 3 -36 7 -17 13 -84
12 -108 0 -12 -7 -51 -42 -87 -78 -36 -37 -87 -84 -115 -106 -51 -41 -105 -95
-105 -105 0 -4 -15 -13 -32 -22 -23 -11 -40 -13 -57 -6 -14 5 -31 6 -38 4 -7
-3 -13 -2 -13 3 0 10 -45 21 -110 27 -25 3 -56 8 -70 11 -14 4 -27 7 -30 8
-24 5 -49 31 -69 70 -47 94 -10 164 154 293 39 30 131 116 205 191 142 143
190 187 255 236 89 67 112 74 285 85 74 5 178 17 230 26 68 12 158 18 320 19
124 0 232 5 240 10 23 14 129 20 250 14 97 -5 123 -9 166 -31z m-6326 -277 c0
-13 70 -11 70 3 0 6 7 2 15 -8 8 -11 15 -15 15 -8 0 6 7 9 17 5 10 -4 14 -2
10 4 -4 6 12 1 34 -10 22 -10 54 -21 72 -22 31 -3 35 -10 25 -45 -3 -8 -3 -11
0 -6 2 4 8 2 13 -5 6 -10 9 -11 9 -1 0 6 4 12 9 12 10 0 9 -53 -2 -61 -4 -3 4
-18 18 -33 30 -32 32 -56 6 -56 -11 0 -26 -7 -35 -15 -19 -19 -30 -19 -23 -1
4 11 1 13 -10 9 -9 -4 -14 -2 -10 3 3 6 -10 10 -33 9 -21 0 -36 -3 -33 -7 2
-5 1 -8 -4 -8 -4 -1 -28 -5 -53 -10 -32 -6 -47 -5 -53 3 -6 9 -10 9 -13 0 -3
-7 -12 -9 -21 -6 -8 3 -18 1 -22 -5 -18 -30 -191 1 -191 34 0 14 -34 37 -42
29 -3 -3 -13 4 -23 15 -15 17 -16 24 -7 45 6 14 18 25 27 25 8 0 15 5 15 10 0
6 -6 10 -12 9 -7 -1 -20 0 -28 1 -8 2 5 6 30 9 32 4 44 10 43 21 -3 18 63 42
95 33 16 -4 22 -1 22 10 0 9 11 17 28 20 15 2 30 5 35 6 4 0 7 -3 7 -8z m9414
-49 c16 9 18 8 13 -4 -6 -16 20 -17 56 -3 10 4 17 3 17 -4 0 -6 11 -11 24 -11
14 0 31 -7 39 -15 8 -8 17 -11 21 -8 3 4 6 -7 7 -23 0 -25 2 -26 9 -9 l9 20 2
-20 c1 -11 2 -27 1 -34 0 -8 7 -20 16 -27 9 -7 14 -16 10 -19 -4 -4 -2 -17 4
-29 7 -11 12 -23 11 -26 0 -3 -4 -24 -7 -48 -5 -40 -32 -91 -48 -92 -4 0 -4
-7 -1 -17 4 -11 3 -14 -5 -9 -7 4 -12 2 -12 -3 0 -6 -7 -11 -16 -11 -8 0 -12
-4 -9 -10 3 -5 1 -10 -5 -10 -6 0 -9 -4 -6 -9 3 -5 -4 -20 -17 -33 -12 -14
-36 -41 -54 -62 -30 -34 -52 -49 -37 -24 4 7 3 8 -4 4 -7 -4 -12 -14 -12 -23
0 -9 -6 -13 -14 -10 -8 3 -17 -1 -20 -9 -4 -10 -13 -13 -26 -9 -12 4 -22 1
-25 -7 -4 -9 -24 -13 -68 -12 -34 1 -74 -2 -89 -7 -16 -4 -30 -3 -33 2 -8 12
-75 12 -75 0 0 -5 -15 -5 -35 -1 -20 4 -38 4 -41 -1 -8 -14 -31 -11 -47 6 -8
8 -17 11 -21 8 -3 -4 -6 -1 -6 5 0 7 -3 11 -7 11 -22 -4 -32 3 -27 16 4 8 2
15 -3 15 -5 0 -9 18 -8 40 5 109 5 110 23 111 16 1 16 2 0 6 -16 4 -16 6 2 25
11 12 17 25 14 29 -3 5 13 39 35 77 23 37 41 76 41 85 0 10 8 21 18 24 9 4 22
13 28 21 6 8 16 12 22 8 8 -5 12 1 12 15 0 18 4 21 35 17 26 -3 34 -1 31 9 -3
7 0 13 6 13 6 0 17 8 25 18 8 9 12 12 9 5 -4 -6 -2 -14 4 -18 6 -3 13 1 16 10
4 9 13 14 20 11 8 -3 22 3 32 14 11 12 34 20 67 22 38 2 49 7 47 18 -3 12 0
11 15 -2 14 -13 22 -14 37 -6z m-9684 -62 c0 -5 -5 -10 -11 -10 -5 0 -7 5 -4
10 3 6 8 10 11 10 2 0 4 -4 4 -10z m611 -25 c5 3 6 -1 3 -9 -5 -13 -8 -12 -24
2 -11 8 -16 20 -13 25 3 5 10 2 15 -7 5 -9 13 -14 19 -11z m15 -102 c2 -21 1
-24 -6 -13 -11 17 -14 57 -3 47 3 -4 8 -19 9 -34z m54 -1 c0 -4 -9 -8 -20 -9
-11 -1 -20 2 -20 5 0 4 9 8 20 9 11 1 20 -2 20 -5z m460 -16 c0 -3 -4 -8 -10
-11 -5 -3 -10 -1 -10 4 0 6 5 11 10 11 6 0 10 -2 10 -4z m31 -8 c0 -9 2 -9 6
1 5 11 7 11 14 0 6 -10 9 -10 9 -2 0 9 10 8 37 -3 34 -15 36 -15 24 0 -14 17
-12 19 13 10 9 -3 13 -10 10 -15 -3 -6 5 -8 18 -5 29 7 55 9 91 7 22 -1 27 -6
27 -26 0 -16 4 -23 14 -19 7 3 21 -7 31 -23 10 -15 25 -34 32 -42 8 -7 12 -20
9 -27 -3 -8 -1 -14 4 -14 5 0 6 -7 3 -17 -4 -9 -2 -14 3 -11 5 4 10 -15 10
-42 0 -27 -3 -47 -8 -44 -4 3 -8 -4 -8 -15 0 -28 -152 -181 -180 -181 -12 0
-18 -4 -15 -10 3 -6 -1 -7 -9 -4 -9 3 -16 11 -16 16 0 6 -7 8 -15 4 -18 -7
-76 12 -91 30 -6 8 -14 11 -17 7 -4 -3 -7 -2 -7 3 0 5 -13 18 -30 27 -16 10
-30 24 -30 31 0 8 -14 16 -31 20 -17 3 -28 10 -25 15 6 9 -31 27 -46 23 -5 -1
-8 4 -8 11 0 8 -7 14 -15 15 -8 1 -21 3 -29 4 -8 1 -19 12 -25 25 -6 13 -17
23 -26 23 -8 0 -15 5 -15 10 0 6 -7 10 -15 10 -9 0 -18 7 -21 15 -4 8 -10 15
-16 15 -13 0 -38 26 -38 40 0 7 -7 10 -14 7 -9 -4 -13 -1 -10 7 3 7 -7 18 -21
26 -14 7 -25 17 -25 22 0 5 5 6 11 3 6 -4 10 -1 8 6 -5 41 25 55 51 24 7 -8
16 -12 21 -9 5 3 6 -2 3 -10 -7 -18 32 -32 50 -16 8 6 20 9 27 8 8 -2 13 4 11
12 -2 8 0 12 4 8 4 -4 13 -3 21 3 10 9 13 8 13 0 0 -7 4 -10 9 -6 5 3 12 -3
14 -12 3 -13 5 -11 6 7 1 19 4 21 13 12 19 -19 32 -14 17 5 -13 17 -13 17 12
1 26 -16 27 -16 32 2 5 21 48 43 57 30 7 -10 44 -3 48 9 5 15 22 14 23 -1z
m-460 -61 c-10 -9 -11 -8 -5 6 3 10 9 15 12 12 3 -3 0 -11 -7 -18z m4914 -133
c88 -14 177 -29 197 -35 42 -11 101 -66 125 -117 9 -18 27 -38 41 -43 20 -8
23 -14 17 -37 -3 -15 -8 -42 -10 -60 -7 -75 -18 -111 -61 -198 -46 -96 -56
-104 -131 -119 -37 -7 -40 -4 -17 19 8 9 11 16 5 16 -5 0 -13 -4 -16 -10 -9
-15 -110 -59 -173 -75 -119 -31 -239 -5 -354 76 -29 21 -43 25 -33 9 15 -25
-19 -6 -53 28 -20 21 -49 44 -64 50 -24 10 -29 9 -43 -11 -8 -12 -15 -29 -15
-38 0 -17 -40 -49 -61 -49 -8 0 -10 12 -6 36 5 31 20 54 93 137 9 11 22 54 28
97 14 87 65 191 122 250 55 58 175 111 229 103 11 -2 92 -15 180 -29z m-2254
-131 c6 9 18 17 27 17 15 0 15 -2 2 -10 -11 -8 -8 -9 11 -4 15 3 29 2 32 -3 3
-5 22 -8 41 -8 26 1 33 -2 26 -10 -6 -8 -6 -12 3 -13 28 -2 62 -12 65 -20 1
-5 17 -7 35 -5 22 3 28 2 18 -5 -15 -11 -6 -36 10 -27 5 4 9 1 9 -5 0 -6 10
-8 25 -4 16 4 25 2 25 -6 0 -17 28 -42 40 -35 6 4 10 3 9 -2 -4 -25 2 -35 22
-30 15 4 19 2 15 -9 -3 -8 1 -14 10 -14 8 0 14 -6 13 -12 -3 -26 2 -37 19 -42
18 -6 57 -84 47 -94 -3 -3 -5 0 -5 6 0 7 -4 12 -10 12 -5 0 -8 -13 -6 -30 2
-16 0 -27 -5 -24 -5 2 -11 -7 -15 -21 -4 -16 -12 -24 -20 -21 -7 3 -18 -3 -23
-12 -6 -9 -11 -13 -11 -9 0 5 -6 5 -12 0 -7 -4 -20 -9 -29 -10 -8 -1 -28 -9
-44 -17 -23 -12 -31 -13 -37 -3 -6 9 -8 9 -8 0 0 -7 -7 -13 -15 -13 -8 0 -15
-6 -16 -12 0 -10 -2 -10 -6 0 -6 15 -33 16 -33 1 0 -6 -9 -9 -20 -6 -11 3 -20
1 -20 -4 0 -5 -7 -9 -15 -9 -8 0 -15 -4 -15 -10 0 -5 -8 -10 -17 -10 -10 0
-31 -7 -48 -16 -16 -8 -38 -13 -48 -10 -11 2 -30 1 -43 -4 -17 -7 -24 -6 -24
3 0 6 -8 3 -17 -8 -12 -15 -14 -16 -10 -3 4 12 -2 18 -24 23 -21 5 -29 11 -25
21 3 9 1 12 -4 9 -6 -3 -13 1 -16 10 -6 13 -8 14 -15 3 -6 -9 -9 -9 -9 -1 0 6
-5 24 -11 40 -8 22 -12 24 -19 13 -8 -12 -10 -10 -10 7 0 12 -8 27 -17 32 -10
6 -15 11 -10 11 4 0 -1 8 -10 18 -10 11 -21 17 -26 15 -4 -3 -7 -1 -6 4 1 4 1
17 0 28 -1 17 -3 18 -11 5 -8 -13 -10 -13 -11 3 -2 26 -4 30 -16 52 -9 15 -13
16 -13 5 -1 -8 -5 -5 -11 8 -5 13 -6 29 -2 34 3 6 1 8 -5 4 -6 -3 -13 -2 -17
4 -3 5 0 10 7 10 10 0 9 3 -2 9 -8 6 -18 7 -22 5 -4 -3 -6 9 -4 25 2 17 -1 31
-5 31 -5 0 -7 10 -5 23 3 12 5 24 5 27 2 9 41 6 41 -3 0 -14 30 20 30 35 1 8
6 7 15 -6 8 -10 19 -15 25 -11 7 4 16 1 21 -6 7 -12 9 -12 9 0 0 8 6 11 15 7
11 -4 19 3 25 19 9 23 22 35 19 18 -4 -23 3 -24 21 -4 10 13 25 21 32 18 17
-6 50 12 43 23 -3 5 6 7 20 4 16 -3 25 0 25 8 0 8 7 4 16 -7 14 -19 16 -19 25
-2z m2994 -137 c61 -78 103 -170 139 -307 20 -81 23 -105 16 -174 -4 -44 -11
-95 -15 -113 -8 -36 -25 -53 -25 -25 0 10 -7 26 -15 37 -8 10 -26 57 -40 105
-15 47 -61 192 -102 321 -41 129 -76 240 -78 247 -14 47 46 1 120 -91z m-3395
22 c0 -5 -17 -7 -37 -5 -33 3 -38 6 -35 27 1 13 10 31 19 40 16 15 19 13 35
-19 10 -19 18 -39 18 -43z m-85 42 c3 -5 1 -10 -4 -10 -6 0 -11 5 -11 10 0 6
2 10 4 10 3 0 8 -4 11 -10z m2024 -90 c-45 -112 -98 -300 -120 -435 -20 -117
-21 -121 -3 -202 18 -78 22 -86 82 -150 l63 -67 -2 -65 c-1 -36 2 -95 6 -131
7 -65 6 -66 -20 -78 -23 -11 -30 -10 -45 3 -9 8 -30 15 -46 15 -28 0 -31 4
-43 49 -7 28 -19 55 -26 61 -7 6 -16 29 -20 51 -4 21 -11 39 -17 39 -10 0 -8
22 5 78 3 12 8 26 12 31 3 5 -8 3 -25 -5 -17 -9 -30 -23 -30 -34 0 -10 -4 -22
-10 -25 -5 -3 -10 -1 -10 4 0 6 -6 11 -14 11 -9 0 -16 18 -20 52 -4 29 -11 58
-17 64 -14 17 -41 274 -34 328 12 93 72 207 182 344 32 39 38 42 68 36 28 -5
35 -2 46 18 16 31 61 89 65 85 2 -2 -10 -37 -27 -77z m-2004 20 c3 -5 1 -10
-4 -10 -6 0 -11 5 -11 10 0 6 2 10 4 10 3 0 8 -4 11 -10z m2799 -688 c-13 -28
-16 -165 -5 -203 19 -62 66 -62 77 -2 4 19 4 75 2 124 -3 52 -2 89 4 89 5 0
41 -7 81 -16 197 -45 292 -154 205 -236 -59 -55 -85 -60 -318 -68 -118 -4
-281 -15 -362 -25 l-147 -19 -47 30 c-52 31 -61 51 -63 123 -2 97 55 156 188
195 79 23 85 22 66 -13 -22 -43 -22 -183 -1 -216 41 -62 73 3 62 124 -14 142
-23 125 74 131 47 3 109 3 138 2 46 -3 52 -6 46 -20z m54 -44 c-4 -29 -38 -38
-38 -10 0 22 8 32 27 32 9 0 13 -8 11 -22z m-333 -27 c-3 -12 -13 -21 -21 -21
-17 0 -19 31 -2 48 17 17 32 -1 23 -27z m-758 -147 c-3 -3 -12 -4 -19 -1 -8 3
-5 6 6 6 11 1 17 -2 13 -5z m-12 -24 c-3 -5 -1 -10 4 -10 6 0 10 -3 9 -7 -1
-9 9 -40 23 -65 5 -10 9 -26 9 -35 0 -29 -20 -93 -29 -93 -12 0 -34 139 -28
180 6 42 6 40 13 40 3 0 2 -4 -1 -10z m952 -210 c27 0 55 -55 42 -81 -8 -15
-24 -16 -161 -10 -10 1 -18 9 -18 19 0 13 -2 14 -9 4 -4 -8 -11 -13 -15 -12
-3 0 -23 -4 -43 -9 -20 -6 -40 -8 -45 -5 -5 3 -15 1 -22 -5 -10 -8 -16 -8 -24
2 -31 37 32 86 111 88 23 0 60 4 82 9 22 4 49 6 60 4 11 -2 30 -4 42 -4z"/>
<path d="M9295 1304 c-22 -8 -47 -21 -55 -29 -13 -13 -11 -15 10 -14 51 2 111
32 95 47 -6 6 -25 5 -50 -4z"/>
<path d="M10596 2717 c3 -10 9 -15 12 -12 3 3 0 11 -7 18 -10 9 -11 8 -5 -6z"/>
<path d="M4245 2280 c3 -5 8 -10 11 -10 2 0 4 5 4 10 0 6 -5 10 -11 10 -5 0
-7 -4 -4 -10z"/>
</g>
</svg>
